# xmcd CD database file
#
# Track frame offsets:
#	150
#	13284
#	28580
#	43984
#	54858
#	69195
#	84065
#	96762
#	109039
#	122975
#	135239
#	149311
#	161502
#	172589
#
# Disc length: 2487 seconds
#
# Revision: 0
# Processed by: cddbd v1.5.2PL0 Copyright (c) Steve Scherf et al.
# Submitted via: CDex 1.51
#
DISCID=a809b50e
DTITLE=Varous - Jazz Cats - Coffee Break Jazz
DYEAR=2000
DGENRE=Jazz
TTITLE0=Mildred Bailey - Hold On
TTITLE1=Glenn Miller and The Modernaires - I've Got A Girl In Kalamazoo
TTITLE2=Glenn Miller - Sunrise Serenade
TTITLE3=Sidney Bechet - Chant in The Night
TTITLE4=Roy Eldridge - Wabash Stomp
TTITLE5=Tiny Grimes - Red Cross
TTITLE6=Billie Holiday - I Can't Get Started
TTITLE7=Duke Ellington - Koko
TTITLE8=Chocolate Dandies - I Never Knew
TTITLE9=Harry James - Jesse
TTITLE10=Benny Carter - Blue Lou
TTITLE11=Duke Ellington - Caravan
TTITLE12=Stuff Smith - Twilight In Turkey
TTITLE13=Lionel Hampton - Shuffin' At The Hollywood
EXTD=YEAR: 2000
EXTT0=
EXTT1=
EXTT2=
EXTT3=
EXTT4=
EXTT5=
EXTT6=
EXTT7=
EXTT8=
EXTT9=
EXTT10=
EXTT11=
EXTT12=
EXTT13=
PLAYORDER=
